<svg
 xmlns="http://www.w3.org/2000/svg"
 xmlns:xlink="http://www.w3.org/1999/xlink"
 width="684px" height="784px">
<path fill-rule="evenodd" fill="rgb(0, 170, 222)"
 d="M673.535,589.851 C668.274,592.816 559.005,655.976 554.024,658.851 C549.043,661.727 541.682,662.909 537.143,660.261 C531.939,657.224 389.961,575.249 384.723,572.261 C379.484,569.272 380.502,566.203 385.653,563.225 C390.837,560.229 499.053,497.735 504.299,494.725 C509.527,491.725 514.216,487.761 514.246,481.606 C514.277,475.586 514.250,117.827 514.241,111.733 C514.232,105.941 518.679,102.304 523.862,105.264 C529.044,108.225 671.298,190.438 675.416,192.764 C679.779,195.229 681.261,198.727 681.241,204.733 C681.221,210.726 681.215,572.732 681.241,578.733 C681.267,584.797 678.796,586.886 673.535,589.851 Z"/>
<path fill-rule="evenodd" fill="rgb(2, 125, 184)"
 d="M2.443,580.155 C2.505,574.116 2.443,447.906 2.443,442.155 C2.443,436.404 5.100,429.438 9.663,426.831 C14.895,423.842 156.876,341.874 162.083,338.831 C167.291,335.788 169.440,338.205 169.443,344.155 C169.446,350.143 169.459,475.107 169.443,481.155 C169.427,487.183 170.516,493.225 175.830,496.329 C181.029,499.366 490.871,678.222 496.152,681.261 C501.173,684.149 502.100,689.819 496.944,692.827 C491.789,695.835 349.464,777.924 345.390,780.327 C341.074,782.873 337.304,782.408 332.112,779.387 C326.932,776.373 13.429,595.365 8.219,592.387 C2.955,589.378 2.380,586.194 2.443,580.155 Z"/>
<path fill-rule="evenodd" fill="rgb(18, 72, 116)"
 d="M346.724,4.300 C351.922,7.374 461.255,70.425 466.235,73.300 C471.216,76.176 475.920,81.960 475.896,87.215 C475.869,93.240 475.865,257.184 475.896,263.215 C475.928,269.246 472.761,269.899 467.606,266.926 C462.419,263.935 354.190,201.465 348.960,198.426 C343.749,195.399 337.971,193.320 332.625,196.371 C327.397,199.355 17.581,378.257 12.309,381.312 C7.298,384.216 1.924,382.184 1.896,376.215 C1.869,370.246 1.940,205.945 1.896,201.215 C1.850,196.204 4.137,193.172 9.349,190.186 C14.549,187.207 328.058,6.210 333.243,3.186 C338.481,0.132 341.525,1.227 346.724,4.300 Z"/>
</svg>
