<svg
 xmlns="https://www.w3.org/2000/svg"
 xmlns:xlink="https://www.w3.org/1999/xlink"
 width="1280px" height="720px">
<path fill-rule="evenodd"  fill="rgb(24, 45, 66)"
 d="M20.000,20.000 L1260.000,20.000 L1260.000,700.000 L20.000,700.000 L20.000,20.000 Z"/>
<path fill-rule="evenodd"  fill="rgb(129, 164, 200)"
 d="M736.083,481.855 C731.774,484.283 642.282,535.999 638.203,538.353 C634.123,540.708 628.094,541.676 624.377,539.507 C620.115,537.021 503.835,469.898 499.544,467.451 C495.253,465.004 496.087,462.491 500.306,460.052 C504.552,457.599 593.181,406.428 597.478,403.963 C601.759,401.507 605.600,398.261 605.625,393.221 C605.650,388.292 605.628,95.350 605.620,90.361 C605.613,85.618 609.255,82.640 613.500,85.064 C617.744,87.488 734.251,154.806 737.623,156.711 C741.197,158.729 742.410,161.593 742.394,166.511 C742.378,171.418 742.372,467.837 742.394,472.751 C742.416,477.716 740.392,479.427 736.083,481.855 Z"/>
<path fill-rule="evenodd"  fill="rgb(81, 123, 166)"
 d="M186.455,473.915 C186.506,468.970 186.455,365.627 186.455,360.918 C186.455,356.208 188.631,350.504 192.368,348.370 C196.653,345.923 312.936,278.805 317.201,276.314 C321.467,273.822 323.226,275.801 323.229,280.673 C323.231,285.576 323.242,387.899 323.229,392.852 C323.216,397.787 324.108,402.735 328.460,405.277 C332.718,407.763 586.480,554.215 590.806,556.703 C594.918,559.068 595.676,563.710 591.454,566.174 C587.232,568.637 470.667,635.853 467.330,637.821 C463.795,639.905 460.708,639.524 456.456,637.051 C452.214,634.583 195.453,486.369 191.185,483.931 C186.874,481.467 186.404,478.860 186.455,473.915 Z"/>
<path fill-rule="evenodd"  fill="rgb(30, 80, 131)"
 d="M468.423,2.392 C472.681,4.909 562.224,56.536 566.304,58.891 C570.383,61.246 574.235,65.982 574.216,70.285 C574.193,75.218 574.190,209.459 574.216,214.397 C574.241,219.336 571.648,219.871 567.426,217.436 C563.178,214.987 474.538,163.835 470.255,161.347 C465.986,158.868 461.254,157.166 456.876,159.664 C452.594,162.107 198.854,308.597 194.536,311.098 C190.431,313.476 186.030,311.812 186.007,306.924 C185.985,302.037 186.044,167.503 186.007,163.630 C185.969,159.527 187.843,157.045 192.112,154.600 C196.370,152.161 453.136,3.956 457.382,1.480 C461.672,-1.021 464.165,-0.124 468.423,2.392 Z"/>
<path fill-rule="evenodd"  fill="rgb(129, 164, 200)"
 d="M1088.295,477.825 C1085.758,479.252 1033.058,509.632 1030.656,511.015 C1028.254,512.398 1024.704,512.967 1022.515,511.693 C1020.005,510.233 951.531,470.802 949.004,469.364 C946.478,467.927 946.969,466.450 949.453,465.018 C951.953,463.577 1004.144,433.517 1006.674,432.069 C1009.196,430.626 1011.457,428.719 1011.472,425.758 C1011.487,422.863 1011.474,250.776 1011.469,247.845 C1011.465,245.059 1013.610,243.310 1016.109,244.734 C1018.609,246.158 1087.216,285.703 1089.202,286.822 C1091.306,288.008 1092.021,289.690 1092.011,292.579 C1092.001,295.462 1091.999,469.591 1092.011,472.478 C1092.024,475.394 1090.832,476.399 1088.295,477.825 Z"/>
<path fill-rule="evenodd"  fill="rgb(81, 123, 166)"
 d="M764.636,473.161 C764.666,470.257 764.636,409.548 764.636,406.782 C764.636,404.015 765.918,400.665 768.118,399.411 C770.641,397.973 839.117,358.545 841.628,357.082 C844.140,355.618 845.176,356.781 845.178,359.643 C845.179,362.523 845.186,422.632 845.178,425.541 C845.170,428.441 845.695,431.347 848.258,432.840 C850.766,434.301 1000.198,520.333 1002.746,521.794 C1005.167,523.184 1005.614,525.911 1003.127,527.358 C1000.641,528.805 932.000,568.291 930.035,569.446 C927.953,570.671 926.135,570.447 923.631,568.994 C921.133,567.545 769.935,480.478 767.422,479.045 C764.883,477.598 764.606,476.066 764.636,473.161 Z"/>
<path fill-rule="evenodd"  fill="rgb(30, 80, 131)"
 d="M930.678,196.169 C933.185,197.647 985.915,227.975 988.317,229.359 C990.719,230.742 992.988,233.524 992.976,236.052 C992.963,238.950 992.961,317.809 992.976,320.710 C992.991,323.611 991.464,323.925 988.978,322.495 C986.476,321.056 934.279,291.007 931.757,289.546 C929.243,288.089 926.457,287.090 923.879,288.557 C921.357,289.992 771.937,376.046 769.394,377.516 C766.977,378.913 764.386,377.935 764.372,375.064 C764.359,372.193 764.394,293.162 764.372,290.887 C764.350,288.477 765.453,287.018 767.967,285.582 C770.475,284.149 921.676,197.087 924.176,195.633 C926.702,194.164 928.171,194.690 930.678,196.169 Z"/>
<path fill-rule="evenodd"  fill="rgb(129, 164, 200)"
 d="M849.081,665.429 C847.580,666.271 816.410,684.210 814.989,685.027 C813.569,685.844 811.469,686.179 810.174,685.427 C808.690,684.565 768.190,661.282 766.695,660.433 C765.201,659.584 765.491,658.712 766.961,657.867 C768.440,657.016 799.309,639.266 800.805,638.411 C802.296,637.559 803.634,636.433 803.643,634.685 C803.651,632.975 803.644,531.362 803.641,529.632 C803.638,527.987 804.907,526.954 806.385,527.794 C807.864,528.635 848.442,551.986 849.617,552.647 C850.862,553.347 851.284,554.340 851.279,556.046 C851.273,557.748 851.271,660.567 851.279,662.271 C851.286,663.993 850.581,664.587 849.081,665.429 Z"/>
<path fill-rule="evenodd"  fill="rgb(81, 123, 166)"
 d="M657.648,662.675 C657.666,660.960 657.648,625.113 657.648,623.480 C657.648,621.846 658.406,619.868 659.708,619.127 C661.200,618.278 701.701,594.997 703.186,594.133 C704.672,593.269 705.285,593.955 705.286,595.645 C705.287,597.346 705.290,632.839 705.286,634.557 C705.281,636.269 705.592,637.985 707.108,638.867 C708.591,639.729 796.975,690.529 798.481,691.392 C799.913,692.212 800.178,693.822 798.707,694.677 C797.237,695.531 756.638,718.846 755.476,719.529 C754.244,720.252 753.169,720.120 751.688,719.262 C750.210,718.406 660.782,666.995 659.296,666.149 C657.794,665.295 657.630,664.390 657.648,662.675 Z"/>
<path fill-rule="evenodd"  fill="rgb(30, 80, 131)"
 d="M755.856,499.118 C757.339,499.991 788.527,517.899 789.947,518.716 C791.368,519.533 792.710,521.175 792.703,522.668 C792.695,524.379 792.694,570.943 792.703,572.656 C792.712,574.369 791.809,574.555 790.338,573.710 C788.859,572.861 757.986,555.118 756.494,554.255 C755.007,553.395 753.359,552.805 751.834,553.671 C750.343,554.518 661.967,605.331 660.463,606.199 C659.033,607.024 657.500,606.446 657.492,604.751 C657.485,603.056 657.505,556.390 657.492,555.047 C657.479,553.624 658.132,552.762 659.618,551.914 C661.102,551.068 750.532,499.660 752.011,498.802 C753.505,497.934 754.373,498.245 755.856,499.118 Z"/>
<path fill-rule="evenodd"  fill="rgb(129, 164, 200)"
 d="M1278.162,406.467 C1276.908,407.169 1250.868,422.137 1249.681,422.819 C1248.494,423.500 1246.740,423.780 1245.658,423.153 C1244.418,422.433 1210.583,403.006 1209.335,402.298 C1208.086,401.590 1208.329,400.862 1209.556,400.156 C1210.792,399.446 1236.581,384.636 1237.831,383.923 C1239.077,383.212 1240.194,382.272 1240.201,380.814 C1240.209,379.387 1240.202,294.603 1240.200,293.159 C1240.198,291.786 1241.258,290.924 1242.493,291.626 C1243.728,292.327 1277.628,311.811 1278.610,312.362 C1279.649,312.946 1280.003,313.775 1279.998,315.198 C1279.993,316.619 1279.992,402.409 1279.998,403.832 C1280.004,405.269 1279.415,405.764 1278.162,406.467 Z"/>
<path fill-rule="evenodd"  fill="rgb(81, 123, 166)"
 d="M1118.234,404.169 C1118.249,402.738 1118.234,372.827 1118.234,371.464 C1118.234,370.101 1118.867,368.451 1119.954,367.833 C1121.201,367.125 1155.037,347.699 1156.278,346.978 C1157.519,346.257 1158.031,346.829 1158.031,348.240 C1158.032,349.659 1158.035,379.274 1158.031,380.707 C1158.028,382.135 1158.287,383.567 1159.554,384.303 C1160.792,385.023 1234.631,427.409 1235.889,428.130 C1237.086,428.814 1237.307,430.158 1236.078,430.871 C1234.850,431.584 1200.932,451.038 1199.961,451.607 C1198.933,452.210 1198.034,452.100 1196.797,451.384 C1195.563,450.670 1120.852,407.773 1119.610,407.068 C1118.356,406.355 1118.219,405.600 1118.234,404.169 Z"/>
<path fill-rule="evenodd"  fill="rgb(30, 80, 131)"
 d="M1200.279,267.698 C1201.518,268.427 1227.573,283.369 1228.760,284.050 C1229.947,284.732 1231.068,286.103 1231.062,287.348 C1231.056,288.776 1231.055,327.628 1231.062,329.058 C1231.070,330.487 1230.315,330.642 1229.087,329.937 C1227.850,329.229 1202.059,314.424 1200.812,313.704 C1199.570,312.986 1198.193,312.494 1196.919,313.217 C1195.673,313.924 1121.841,356.321 1120.585,357.045 C1119.391,357.734 1118.110,357.252 1118.103,355.837 C1118.097,354.423 1118.114,315.485 1118.103,314.365 C1118.092,313.177 1118.637,312.459 1119.880,311.751 C1121.119,311.045 1195.831,268.151 1197.067,267.434 C1198.315,266.710 1199.040,266.970 1200.279,267.698 Z"/>
<path fill-rule="evenodd"  fill="rgb(129, 164, 200)"
 d="M160.052,406.467 C158.798,407.169 132.758,422.137 131.571,422.819 C130.384,423.500 128.630,423.780 127.548,423.153 C126.308,422.433 92.473,403.006 91.225,402.298 C89.976,401.590 90.219,400.862 91.447,400.156 C92.682,399.446 118.471,384.636 119.721,383.923 C120.967,383.212 122.084,382.272 122.092,380.814 C122.099,379.387 122.093,294.603 122.090,293.159 C122.088,291.786 123.148,290.924 124.383,291.626 C125.618,292.327 159.519,311.811 160.500,312.362 C161.540,312.946 161.893,313.775 161.888,315.198 C161.883,316.619 161.882,402.409 161.888,403.832 C161.894,405.269 161.306,405.764 160.052,406.467 Z"/>
<path fill-rule="evenodd"  fill="rgb(81, 123, 166)"
 d="M0.124,404.169 C0.139,402.738 0.124,372.827 0.124,371.464 C0.124,370.101 0.757,368.451 1.844,367.833 C3.091,367.125 36.927,347.699 38.168,346.978 C39.409,346.257 39.921,346.829 39.922,348.240 C39.922,349.659 39.925,379.274 39.922,380.707 C39.918,382.135 40.177,383.567 41.444,384.303 C42.683,385.023 116.521,427.409 117.780,428.130 C118.976,428.814 119.197,430.158 117.968,430.871 C116.740,431.584 82.822,451.038 81.851,451.607 C80.823,452.210 79.925,452.100 78.687,451.384 C77.453,450.670 2.742,407.773 1.500,407.068 C0.246,406.355 0.109,405.600 0.124,404.169 Z"/>
<path fill-rule="evenodd"  fill="rgb(30, 80, 131)"
 d="M82.169,267.698 C83.408,268.427 109.463,283.369 110.650,284.050 C111.837,284.732 112.958,286.103 112.952,287.348 C112.946,288.776 112.945,327.628 112.952,329.058 C112.960,330.487 112.205,330.642 110.977,329.937 C109.741,329.229 83.949,314.424 82.702,313.704 C81.460,312.986 80.083,312.494 78.810,313.217 C77.564,313.924 3.731,356.321 2.475,357.045 C1.281,357.734 0.000,357.252 -0.006,355.837 C-0.013,354.423 0.004,315.485 -0.006,314.365 C-0.018,313.177 0.528,312.459 1.770,311.751 C3.009,311.045 77.721,268.151 78.957,267.434 C80.205,266.710 80.931,266.970 82.169,267.698 Z"/>
</svg>
