<svg
 xmlns="https://www.w3.org/2000/svg"
 xmlns:xlink="https://www.w3.org/1999/xlink"
 width="723px" height="1280px">
<path fill-rule="evenodd"  fill="rgb(24, 45, 66)"
 d="M22.000,20.000 L702.000,20.000 L702.000,1260.000 L22.000,1260.000 L22.000,20.000 Z"/>
<path fill-rule="evenodd"  fill="rgb(129, 164, 200)"
 d="M438.974,737.814 C435.535,739.753 364.119,781.054 360.864,782.935 C357.608,784.815 352.797,785.588 349.831,783.857 C346.429,781.871 253.636,728.266 250.212,726.312 C246.788,724.357 247.454,722.350 250.821,720.403 C254.209,718.444 324.936,677.578 328.365,675.609 C331.782,673.648 334.846,671.055 334.866,667.031 C334.886,663.094 334.869,429.148 334.862,425.163 C334.856,421.376 337.763,418.997 341.150,420.933 C344.538,422.869 437.511,476.630 440.203,478.151 C443.054,479.763 444.023,482.050 444.010,485.978 C443.997,489.897 443.993,726.620 444.010,730.544 C444.027,734.509 442.412,735.875 438.974,737.814 Z"/>
<path fill-rule="evenodd"  fill="rgb(81, 123, 166)"
 d="M0.363,731.474 C0.404,727.525 0.363,644.994 0.363,641.233 C0.363,637.472 2.100,632.917 5.082,631.212 C8.501,629.258 101.297,575.657 104.700,573.667 C108.104,571.677 109.509,573.258 109.511,577.149 C109.512,581.064 109.521,662.780 109.511,666.736 C109.500,670.677 110.212,674.629 113.685,676.658 C117.083,678.644 319.588,795.602 323.040,797.589 C326.322,799.478 326.927,803.185 323.558,805.153 C320.188,807.120 227.168,860.799 224.505,862.371 C221.684,864.035 219.221,863.731 215.827,861.756 C212.442,859.785 7.544,741.420 4.138,739.473 C0.698,737.505 0.322,735.423 0.363,731.474 Z"/>
<path fill-rule="evenodd"  fill="rgb(30, 80, 131)"
 d="M225.377,354.910 C228.775,356.920 300.232,398.151 303.487,400.031 C306.743,401.911 309.817,405.694 309.801,409.130 C309.783,413.070 309.781,520.276 309.801,524.220 C309.822,528.164 307.752,528.591 304.383,526.647 C300.993,524.691 230.257,483.840 226.839,481.854 C223.433,479.874 219.656,478.515 216.163,480.509 C212.745,482.461 10.257,599.449 6.811,601.447 C3.536,603.345 0.024,602.016 0.006,598.113 C-0.012,594.210 0.035,486.770 0.006,483.677 C-0.025,480.400 1.471,478.418 4.877,476.465 C8.276,474.517 213.178,356.159 216.566,354.182 C219.990,352.185 221.980,352.901 225.377,354.910 Z"/>
<path fill-rule="evenodd"  fill="rgb(129, 164, 200)"
 d="M720.043,734.597 C718.018,735.736 675.964,759.998 674.047,761.102 C672.130,762.207 669.297,762.661 667.550,761.644 C665.547,760.477 610.904,728.987 608.888,727.839 C606.871,726.691 607.263,725.512 609.246,724.368 C611.241,723.217 652.890,699.211 654.909,698.055 C656.921,696.903 658.726,695.380 658.738,693.015 C658.749,690.703 658.739,553.273 658.735,550.932 C658.732,548.707 660.444,547.310 662.438,548.447 C664.433,549.584 719.182,581.166 720.767,582.059 C722.446,583.006 723.017,584.350 723.009,586.657 C723.001,588.959 722.999,728.020 723.009,730.326 C723.019,732.655 722.068,733.458 720.043,734.597 Z"/>
<path fill-rule="evenodd"  fill="rgb(81, 123, 166)"
 d="M461.759,730.872 C461.783,728.552 461.759,680.070 461.759,677.861 C461.759,675.651 462.782,672.975 464.538,671.974 C466.552,670.826 521.196,639.338 523.200,638.170 C525.204,637.001 526.032,637.929 526.033,640.215 C526.034,642.515 526.039,690.519 526.033,692.842 C526.026,695.157 526.446,697.479 528.491,698.671 C530.492,699.837 649.741,768.544 651.774,769.711 C653.706,770.820 654.063,772.998 652.078,774.154 C650.094,775.310 595.318,806.843 593.750,807.766 C592.088,808.744 590.638,808.566 588.639,807.405 C586.646,806.247 465.988,736.715 463.982,735.571 C461.956,734.415 461.735,733.192 461.759,730.872 Z"/>
<path fill-rule="evenodd"  fill="rgb(30, 80, 131)"
 d="M594.263,509.663 C596.264,510.843 638.343,535.064 640.260,536.168 C642.176,537.273 643.987,539.495 643.978,541.513 C643.967,543.828 643.966,606.805 643.978,609.122 C643.990,611.439 642.771,611.690 640.787,610.548 C638.791,609.399 597.137,585.402 595.124,584.234 C593.118,583.071 590.894,582.273 588.837,583.445 C586.825,584.591 467.586,653.315 465.556,654.488 C463.628,655.604 461.559,654.823 461.549,652.530 C461.538,650.237 461.566,587.123 461.549,585.306 C461.531,583.381 462.411,582.216 464.417,581.069 C466.419,579.925 587.079,510.396 589.075,509.235 C591.090,508.061 592.262,508.482 594.263,509.663 Z"/>
<path fill-rule="evenodd"  fill="rgb(129, 164, 200)"
 d="M529.147,884.419 C527.950,885.092 503.076,899.418 501.942,900.070 C500.808,900.722 499.132,900.990 498.099,900.390 C496.915,899.701 464.595,881.107 463.403,880.429 C462.210,879.751 462.442,879.055 463.615,878.380 C464.795,877.700 489.428,863.525 490.623,862.842 C491.813,862.162 492.880,861.262 492.887,859.866 C492.894,858.501 492.888,777.352 492.886,775.970 C492.884,774.656 493.896,773.831 495.076,774.502 C496.256,775.174 528.638,793.822 529.575,794.350 C530.568,794.909 530.906,795.702 530.901,797.065 C530.897,798.424 530.895,880.536 530.901,881.897 C530.907,883.273 530.345,883.747 529.147,884.419 Z"/>
<path fill-rule="evenodd"  fill="rgb(81, 123, 166)"
 d="M376.382,882.220 C376.396,880.850 376.382,852.222 376.382,850.918 C376.382,849.613 376.986,848.033 378.025,847.442 C379.216,846.764 411.536,828.172 412.722,827.481 C413.907,826.791 414.396,827.339 414.397,828.689 C414.398,830.047 414.401,858.392 414.397,859.764 C414.393,861.131 414.641,862.502 415.851,863.206 C417.034,863.895 487.566,904.464 488.768,905.153 C489.911,905.808 490.122,907.094 488.948,907.777 C487.775,908.459 455.376,927.079 454.449,927.624 C453.466,928.201 452.608,928.096 451.427,927.411 C450.247,926.727 378.882,885.670 377.696,884.994 C376.498,884.312 376.367,883.590 376.382,882.220 Z"/>
<path fill-rule="evenodd"  fill="rgb(30, 80, 131)"
 d="M454.753,751.601 C455.936,752.298 480.824,766.600 481.958,767.252 C483.092,767.904 484.163,769.216 484.157,770.408 C484.151,771.775 484.150,808.962 484.157,810.330 C484.164,811.698 483.443,811.846 482.270,811.172 C481.089,810.493 456.452,796.323 455.262,795.634 C454.075,794.947 452.760,794.476 451.543,795.168 C450.353,795.845 379.828,836.424 378.627,837.117 C377.487,837.776 376.263,837.315 376.257,835.961 C376.251,834.607 376.267,797.339 376.257,796.266 C376.247,795.130 376.767,794.442 377.954,793.765 C379.137,793.089 450.504,752.034 451.684,751.349 C452.876,750.656 453.569,750.904 454.753,751.601 Z"/>
<path fill-rule="evenodd"  fill="rgb(129, 164, 200)"
 d="M437.147,1236.419 C435.950,1237.092 411.076,1251.418 409.942,1252.070 C408.808,1252.722 407.132,1252.990 406.099,1252.390 C404.915,1251.701 372.595,1233.107 371.403,1232.429 C370.210,1231.751 370.442,1231.055 371.615,1230.380 C372.795,1229.700 397.428,1215.525 398.623,1214.842 C399.813,1214.162 400.880,1213.262 400.887,1211.866 C400.894,1210.501 400.888,1129.352 400.886,1127.970 C400.884,1126.656 401.896,1125.831 403.076,1126.502 C404.256,1127.174 436.638,1145.822 437.575,1146.350 C438.568,1146.909 438.906,1147.702 438.901,1149.065 C438.897,1150.424 438.895,1232.536 438.901,1233.897 C438.907,1235.273 438.345,1235.747 437.147,1236.419 Z"/>
<path fill-rule="evenodd"  fill="rgb(81, 123, 166)"
 d="M284.382,1234.220 C284.396,1232.850 284.382,1204.222 284.382,1202.918 C284.382,1201.613 284.986,1200.033 286.025,1199.442 C287.216,1198.764 319.536,1180.172 320.722,1179.481 C321.907,1178.791 322.396,1179.339 322.397,1180.689 C322.398,1182.047 322.401,1210.392 322.397,1211.764 C322.393,1213.131 322.641,1214.502 323.851,1215.206 C325.034,1215.895 395.566,1256.464 396.768,1257.153 C397.911,1257.808 398.122,1259.094 396.948,1259.777 C395.775,1260.459 363.376,1279.079 362.449,1279.624 C361.466,1280.201 360.608,1280.096 359.427,1279.411 C358.247,1278.727 286.882,1237.670 285.696,1236.994 C284.498,1236.312 284.367,1235.590 284.382,1234.220 Z"/>
<path fill-rule="evenodd"  fill="rgb(30, 80, 131)"
 d="M362.753,1103.601 C363.936,1104.298 388.824,1118.600 389.958,1119.252 C391.092,1119.904 392.163,1121.216 392.157,1122.408 C392.151,1123.775 392.150,1160.962 392.157,1162.330 C392.164,1163.698 391.443,1163.846 390.270,1163.172 C389.089,1162.493 364.452,1148.323 363.262,1147.634 C362.075,1146.947 360.760,1146.476 359.543,1147.168 C358.353,1147.845 287.828,1188.424 286.627,1189.117 C285.487,1189.776 284.263,1189.315 284.257,1187.961 C284.251,1186.607 284.267,1149.339 284.257,1148.266 C284.247,1147.130 284.767,1146.442 285.954,1145.765 C287.137,1145.089 358.504,1104.034 359.684,1103.349 C360.876,1102.656 361.569,1102.904 362.753,1103.601 Z"/>
<path fill-rule="evenodd"  fill="rgb(129, 164, 200)"
 d="M437.147,134.419 C435.950,135.092 411.076,149.418 409.942,150.070 C408.808,150.722 407.132,150.990 406.099,150.390 C404.915,149.701 372.595,131.107 371.403,130.429 C370.210,129.751 370.442,129.055 371.615,128.380 C372.795,127.700 397.428,113.525 398.623,112.842 C399.813,112.162 400.880,111.262 400.887,109.866 C400.894,108.501 400.888,27.352 400.886,25.970 C400.884,24.656 401.896,23.831 403.076,24.502 C404.256,25.174 436.638,43.822 437.575,44.350 C438.568,44.909 438.906,45.702 438.901,47.065 C438.897,48.424 438.895,130.536 438.901,131.897 C438.907,133.273 438.345,133.747 437.147,134.419 Z"/>
<path fill-rule="evenodd"  fill="rgb(81, 123, 166)"
 d="M284.382,132.220 C284.396,130.850 284.382,102.222 284.382,100.918 C284.382,99.613 284.986,98.033 286.025,97.442 C287.216,96.764 319.536,78.172 320.722,77.481 C321.907,76.791 322.396,77.339 322.397,78.689 C322.398,80.047 322.401,108.392 322.397,109.764 C322.393,111.131 322.641,112.502 323.851,113.206 C325.034,113.895 395.566,154.464 396.768,155.153 C397.911,155.808 398.122,157.094 396.948,157.777 C395.775,158.459 363.376,177.079 362.449,177.624 C361.466,178.201 360.608,178.096 359.427,177.411 C358.247,176.727 286.882,135.670 285.696,134.994 C284.498,134.312 284.367,133.590 284.382,132.220 Z"/>
<path fill-rule="evenodd"  fill="rgb(30, 80, 131)"
 d="M362.753,1.601 C363.936,2.298 388.824,16.600 389.958,17.252 C391.092,17.904 392.163,19.216 392.157,20.408 C392.151,21.775 392.150,58.962 392.157,60.330 C392.164,61.698 391.443,61.846 390.270,61.172 C389.089,60.493 364.452,46.323 363.262,45.634 C362.075,44.947 360.760,44.476 359.543,45.168 C358.353,45.845 287.828,86.424 286.627,87.117 C285.487,87.776 284.263,87.315 284.257,85.961 C284.251,84.607 284.267,47.339 284.257,46.266 C284.247,45.130 284.767,44.442 285.954,43.765 C287.137,43.089 358.504,2.034 359.684,1.349 C360.876,0.656 361.569,0.904 362.753,1.601 Z"/>
</svg>
