<svg
 xmlns="https://www.w3.org/2000/svg"
 xmlns:xlink="https://www.w3.org/1999/xlink"
 width="724px" height="720px">
<path fill-rule="evenodd"  fill="rgb(24, 45, 66)"
 d="M22.000,20.000 L702.000,20.000 L702.000,700.000 L22.000,700.000 L22.000,20.000 Z"/>
<path fill-rule="evenodd"  fill="rgb(129, 164, 200)"
 d="M439.581,457.814 C436.138,459.753 364.623,501.054 361.363,502.935 C358.103,504.815 353.285,505.588 350.315,503.857 C346.909,501.871 253.987,448.266 250.558,446.312 C247.130,444.357 247.796,442.350 251.168,440.403 C254.560,438.444 325.385,397.578 328.819,395.609 C332.240,393.648 335.309,391.055 335.329,387.031 C335.349,383.094 335.332,149.148 335.326,145.163 C335.320,141.376 338.230,138.997 341.622,140.933 C345.014,142.869 438.116,196.630 440.812,198.151 C443.667,199.763 444.637,202.050 444.624,205.978 C444.611,209.897 444.607,446.620 444.624,450.544 C444.641,454.509 443.024,455.875 439.581,457.814 Z"/>
<path fill-rule="evenodd"  fill="rgb(81, 123, 166)"
 d="M0.364,451.474 C0.405,447.525 0.364,364.994 0.364,361.233 C0.364,357.472 2.103,352.917 5.089,351.212 C8.513,349.258 101.437,295.657 104.845,293.667 C108.254,291.677 109.660,293.258 109.662,297.149 C109.664,301.064 109.673,382.780 109.662,386.736 C109.651,390.677 110.364,394.629 113.842,396.658 C117.245,398.644 320.030,515.602 323.487,517.589 C326.773,519.478 327.379,523.185 324.005,525.153 C320.631,527.120 227.482,580.799 224.816,582.371 C221.991,584.035 219.524,583.731 216.126,581.756 C212.736,579.785 7.554,461.420 4.144,459.473 C0.699,457.505 0.323,455.423 0.364,451.474 Z"/>
<path fill-rule="evenodd"  fill="rgb(30, 80, 131)"
 d="M225.689,74.910 C229.091,76.920 300.647,118.151 303.907,120.031 C307.167,121.911 310.246,125.694 310.230,129.130 C310.212,133.070 310.209,240.276 310.230,244.220 C310.250,248.164 308.178,248.591 304.804,246.647 C301.409,244.691 230.576,203.840 227.153,201.854 C223.742,199.874 219.960,198.515 216.462,200.509 C213.040,202.461 10.271,319.449 6.821,321.447 C3.541,323.345 0.024,322.016 0.006,318.113 C-0.012,314.210 0.035,206.770 0.006,203.677 C-0.025,200.400 1.473,198.418 4.884,196.465 C8.287,194.517 213.473,76.159 216.866,74.182 C220.294,72.185 222.287,72.901 225.689,74.910 Z"/>
<path fill-rule="evenodd"  fill="rgb(129, 164, 200)"
 d="M721.039,454.597 C719.012,455.736 676.899,479.998 674.979,481.102 C673.059,482.207 670.222,482.661 668.473,481.644 C666.467,480.477 611.749,448.987 609.730,447.839 C607.711,446.691 608.103,445.512 610.089,444.368 C612.086,443.217 653.793,419.211 655.815,418.055 C657.830,416.903 659.637,415.380 659.649,413.015 C659.660,410.703 659.650,273.273 659.647,270.932 C659.643,268.707 661.357,267.310 663.354,268.447 C665.352,269.584 720.177,301.166 721.764,302.059 C723.446,303.006 724.017,304.350 724.009,306.657 C724.001,308.959 723.999,448.020 724.009,450.326 C724.019,452.655 723.067,453.458 721.039,454.597 Z"/>
<path fill-rule="evenodd"  fill="rgb(81, 123, 166)"
 d="M462.398,450.872 C462.422,448.552 462.398,400.070 462.398,397.861 C462.398,395.651 463.422,392.975 465.180,391.974 C467.197,390.826 521.917,359.338 523.924,358.170 C525.931,357.001 526.759,357.929 526.760,360.215 C526.761,362.515 526.767,410.519 526.760,412.842 C526.754,415.157 527.174,417.479 529.222,418.671 C531.225,419.837 650.640,488.544 652.675,489.711 C654.610,490.820 654.967,492.998 652.980,494.154 C650.994,495.310 596.141,526.843 594.571,527.766 C592.907,528.744 591.455,528.566 589.454,527.405 C587.457,526.247 466.632,456.715 464.624,455.571 C462.595,454.415 462.374,453.192 462.398,450.872 Z"/>
<path fill-rule="evenodd"  fill="rgb(30, 80, 131)"
 d="M595.085,229.663 C597.088,230.843 639.226,255.064 641.145,256.168 C643.065,257.273 644.878,259.495 644.868,261.513 C644.858,263.828 644.856,326.805 644.868,329.122 C644.880,331.439 643.660,331.690 641.673,330.548 C639.674,329.399 597.963,305.402 595.947,304.234 C593.938,303.071 591.711,302.273 589.651,303.445 C587.636,304.591 468.232,373.315 466.200,374.488 C464.269,375.604 462.198,374.823 462.187,372.530 C462.177,370.237 462.204,307.123 462.187,305.306 C462.169,303.381 463.051,302.216 465.060,301.069 C467.064,299.925 587.891,230.396 589.889,229.235 C591.908,228.061 593.081,228.482 595.085,229.663 Z"/>
<path fill-rule="evenodd"  fill="rgb(129, 164, 200)"
 d="M529.879,604.419 C528.680,605.092 503.772,619.418 502.636,620.070 C501.501,620.722 499.823,620.990 498.788,620.390 C497.602,619.701 465.238,601.107 464.044,600.429 C462.849,599.751 463.081,599.055 464.256,598.380 C465.437,597.700 490.105,583.525 491.301,582.842 C492.493,582.162 493.562,581.262 493.569,579.866 C493.576,578.501 493.570,497.352 493.567,495.970 C493.565,494.656 494.579,493.831 495.761,494.502 C496.942,495.174 529.369,513.822 530.308,514.350 C531.302,514.909 531.640,515.702 531.635,517.065 C531.631,518.424 531.630,600.536 531.635,601.897 C531.642,603.273 531.078,603.747 529.879,604.419 Z"/>
<path fill-rule="evenodd"  fill="rgb(81, 123, 166)"
 d="M376.902,602.220 C376.916,600.850 376.902,572.222 376.902,570.918 C376.902,569.613 377.508,568.033 378.548,567.442 C379.741,566.764 412.105,548.172 413.293,547.481 C414.480,546.791 414.969,547.339 414.970,548.689 C414.971,550.047 414.974,578.392 414.970,579.764 C414.966,581.131 415.215,582.502 416.426,583.206 C417.611,583.895 488.240,624.464 489.444,625.153 C490.589,625.808 490.800,627.094 489.625,627.777 C488.450,628.459 456.006,647.079 455.078,647.624 C454.094,648.201 453.234,648.096 452.051,647.411 C450.870,646.727 379.406,605.670 378.219,604.994 C377.019,604.312 376.888,603.590 376.902,602.220 Z"/>
<path fill-rule="evenodd"  fill="rgb(30, 80, 131)"
 d="M455.382,471.601 C456.567,472.298 481.489,486.600 482.625,487.252 C483.760,487.904 484.832,489.216 484.827,490.408 C484.821,491.775 484.820,528.962 484.827,530.330 C484.834,531.698 484.112,531.846 482.937,531.172 C481.755,530.493 457.084,516.323 455.892,515.634 C454.703,514.947 453.386,514.476 452.168,515.168 C450.976,515.845 380.353,556.424 379.151,557.117 C378.009,557.776 376.784,557.315 376.778,555.961 C376.771,554.607 376.788,517.339 376.778,516.266 C376.767,515.130 377.288,514.442 378.477,513.765 C379.662,513.089 451.127,472.034 452.309,471.349 C453.503,470.656 454.197,470.904 455.382,471.601 Z"/>
<path fill-rule="evenodd"  fill="rgb(129, 164, 200)"
 d="M405.985,694.701 C405.288,695.092 390.811,703.408 390.151,703.787 C389.491,704.165 388.516,704.321 387.914,703.972 C387.225,703.572 368.414,692.778 367.720,692.385 C367.025,691.991 367.160,691.587 367.843,691.195 C368.530,690.801 382.867,682.572 383.563,682.175 C384.255,681.780 384.876,681.258 384.881,680.448 C384.885,679.655 384.881,632.548 384.880,631.746 C384.879,630.983 385.468,630.504 386.154,630.894 C386.841,631.284 405.689,642.109 406.234,642.415 C406.812,642.740 407.009,643.200 407.006,643.991 C407.003,644.780 407.003,692.447 407.006,693.237 C407.010,694.035 406.682,694.311 405.985,694.701 Z"/>
<path fill-rule="evenodd"  fill="rgb(81, 123, 166)"
 d="M317.070,693.424 C317.079,692.629 317.070,676.011 317.070,675.253 C317.070,674.496 317.422,673.579 318.027,673.236 C318.720,672.842 337.532,662.049 338.221,661.648 C338.911,661.248 339.196,661.566 339.197,662.349 C339.197,663.138 339.199,679.592 339.197,680.389 C339.194,681.182 339.339,681.978 340.043,682.387 C340.732,682.787 381.783,706.337 382.483,706.737 C383.148,707.118 383.271,707.864 382.588,708.260 C381.905,708.656 363.048,719.465 362.508,719.782 C361.936,720.117 361.437,720.056 360.749,719.658 C360.063,719.261 318.526,695.427 317.836,695.035 C317.138,694.639 317.062,694.219 317.070,693.424 Z"/>
<path fill-rule="evenodd"  fill="rgb(30, 80, 131)"
 d="M362.685,617.600 C363.374,618.004 377.860,626.306 378.519,626.685 C379.179,627.064 379.803,627.825 379.799,628.517 C379.796,629.311 379.795,650.898 379.799,651.692 C379.804,652.486 379.384,652.572 378.701,652.180 C378.014,651.787 363.674,643.561 362.981,643.161 C362.291,642.762 361.525,642.489 360.817,642.890 C360.124,643.283 319.076,666.840 318.377,667.242 C317.713,667.624 317.001,667.357 316.998,666.571 C316.994,665.785 317.004,644.151 316.998,643.528 C316.992,642.868 317.295,642.469 317.985,642.076 C318.674,641.684 360.212,617.851 360.899,617.453 C361.593,617.051 361.996,617.195 362.685,617.600 Z"/>
<path fill-rule="evenodd"  fill="rgb(129, 164, 200)"
 d="M405.985,77.487 C405.288,77.877 390.811,86.194 390.151,86.572 C389.491,86.951 388.516,87.106 387.914,86.758 C387.225,86.358 368.414,75.564 367.720,75.171 C367.025,74.777 367.160,74.373 367.843,73.981 C368.530,73.586 382.867,65.358 383.563,64.961 C384.255,64.566 384.876,64.044 384.881,63.234 C384.885,62.441 384.881,15.334 384.880,14.531 C384.879,13.769 385.468,13.290 386.154,13.680 C386.841,14.069 405.689,24.895 406.234,25.201 C406.812,25.526 407.009,25.986 407.006,26.777 C407.003,27.566 407.003,75.233 407.006,76.023 C407.010,76.821 406.682,77.096 405.985,77.487 Z"/>
<path fill-rule="evenodd"  fill="rgb(81, 123, 166)"
 d="M317.070,76.210 C317.079,75.415 317.070,58.796 317.070,58.039 C317.070,57.282 317.422,56.365 318.027,56.021 C318.720,55.628 337.532,44.835 338.221,44.434 C338.911,44.033 339.196,44.352 339.197,45.135 C339.197,45.924 339.199,62.378 339.197,63.174 C339.194,63.968 339.339,64.764 340.043,65.172 C340.732,65.572 381.783,89.123 382.483,89.523 C383.148,89.903 383.271,90.650 382.588,91.046 C381.905,91.442 363.048,102.251 362.508,102.567 C361.936,102.903 361.437,102.841 360.749,102.444 C360.063,102.047 318.526,78.213 317.836,77.821 C317.138,77.424 317.062,77.005 317.070,76.210 Z"/>
<path fill-rule="evenodd"  fill="rgb(30, 80, 131)"
 d="M362.685,0.385 C363.374,0.790 377.860,9.092 378.519,9.471 C379.179,9.849 379.803,10.611 379.799,11.303 C379.796,12.096 379.795,33.683 379.799,34.477 C379.804,35.272 379.384,35.358 378.701,34.966 C378.014,34.572 363.674,26.347 362.981,25.947 C362.291,25.548 361.525,25.274 360.817,25.676 C360.124,26.069 319.076,49.625 318.377,50.028 C317.713,50.410 317.001,50.142 316.998,49.357 C316.994,48.571 317.004,26.937 316.998,26.314 C316.992,25.654 317.295,25.255 317.985,24.862 C318.674,24.469 360.212,0.637 360.899,0.239 C361.593,-0.164 361.996,-0.019 362.685,0.385 Z"/>
</svg>
